<mxfile host="app.diagrams.net" agent="Mozilla/5.0 (Windows NT 10.0; Win64; x64) AppleWebKit/537.36 (KHTML, like Gecko) Chrome/141.0.0.0 Safari/537.36" version="28.2.7">
  <diagram name="Page-1" id="HNJzXOSTJjkiHxlmFJ1C">
    <mxGraphModel dx="2911" dy="1506" grid="1" gridSize="10" guides="1" tooltips="1" connect="1" arrows="1" fold="1" page="1" pageScale="1" pageWidth="850" pageHeight="1100" math="0" shadow="0">
      <root>
        <mxCell id="0" />
        <mxCell id="1" parent="0" />
        <mxCell id="udEfrbj_mN1C28on9xcS-7" value="Cusertomer Notifier" style="html=1;dropTarget=0;whiteSpace=wrap;" vertex="1" parent="1">
          <mxGeometry x="80" y="230" width="180" height="90" as="geometry" />
        </mxCell>
        <mxCell id="udEfrbj_mN1C28on9xcS-8" value="" style="shape=module;jettyWidth=8;jettyHeight=4;" vertex="1" parent="udEfrbj_mN1C28on9xcS-7">
          <mxGeometry x="1" width="20" height="20" relative="1" as="geometry">
            <mxPoint x="-27" y="7" as="offset" />
          </mxGeometry>
        </mxCell>
        <mxCell id="udEfrbj_mN1C28on9xcS-9" value="Web Admin" style="html=1;dropTarget=0;whiteSpace=wrap;" vertex="1" parent="1">
          <mxGeometry x="500" y="220" width="180" height="90" as="geometry" />
        </mxCell>
        <mxCell id="udEfrbj_mN1C28on9xcS-10" value="" style="shape=module;jettyWidth=8;jettyHeight=4;" vertex="1" parent="udEfrbj_mN1C28on9xcS-9">
          <mxGeometry x="1" width="20" height="20" relative="1" as="geometry">
            <mxPoint x="-27" y="7" as="offset" />
          </mxGeometry>
        </mxCell>
        <mxCell id="udEfrbj_mN1C28on9xcS-11" value="Product Catalogue" style="html=1;dropTarget=0;whiteSpace=wrap;" vertex="1" parent="1">
          <mxGeometry x="500" y="390" width="180" height="90" as="geometry" />
        </mxCell>
        <mxCell id="udEfrbj_mN1C28on9xcS-12" value="" style="shape=module;jettyWidth=8;jettyHeight=4;" vertex="1" parent="udEfrbj_mN1C28on9xcS-11">
          <mxGeometry x="1" width="20" height="20" relative="1" as="geometry">
            <mxPoint x="-27" y="7" as="offset" />
          </mxGeometry>
        </mxCell>
        <mxCell id="udEfrbj_mN1C28on9xcS-13" value="Mobile Store" style="html=1;dropTarget=0;whiteSpace=wrap;" vertex="1" parent="1">
          <mxGeometry x="500" y="540" width="180" height="90" as="geometry" />
        </mxCell>
        <mxCell id="udEfrbj_mN1C28on9xcS-14" value="" style="shape=module;jettyWidth=8;jettyHeight=4;" vertex="1" parent="udEfrbj_mN1C28on9xcS-13">
          <mxGeometry x="1" width="20" height="20" relative="1" as="geometry">
            <mxPoint x="-27" y="7" as="offset" />
          </mxGeometry>
        </mxCell>
        <mxCell id="udEfrbj_mN1C28on9xcS-15" value="Order Manager" style="html=1;dropTarget=0;whiteSpace=wrap;" vertex="1" parent="1">
          <mxGeometry x="500" y="710" width="180" height="90" as="geometry" />
        </mxCell>
        <mxCell id="udEfrbj_mN1C28on9xcS-16" value="" style="shape=module;jettyWidth=8;jettyHeight=4;" vertex="1" parent="udEfrbj_mN1C28on9xcS-15">
          <mxGeometry x="1" width="20" height="20" relative="1" as="geometry">
            <mxPoint x="-27" y="7" as="offset" />
          </mxGeometry>
        </mxCell>
        <mxCell id="udEfrbj_mN1C28on9xcS-17" value="Shipping control" style="html=1;dropTarget=0;whiteSpace=wrap;" vertex="1" parent="1">
          <mxGeometry x="320" y="900" width="180" height="90" as="geometry" />
        </mxCell>
        <mxCell id="udEfrbj_mN1C28on9xcS-18" value="" style="shape=module;jettyWidth=8;jettyHeight=4;" vertex="1" parent="udEfrbj_mN1C28on9xcS-17">
          <mxGeometry x="1" width="20" height="20" relative="1" as="geometry">
            <mxPoint x="-27" y="7" as="offset" />
          </mxGeometry>
        </mxCell>
        <mxCell id="udEfrbj_mN1C28on9xcS-19" value="Inventroy Control" style="html=1;dropTarget=0;whiteSpace=wrap;" vertex="1" parent="1">
          <mxGeometry x="80" y="740" width="180" height="90" as="geometry" />
        </mxCell>
        <mxCell id="udEfrbj_mN1C28on9xcS-20" value="" style="shape=module;jettyWidth=8;jettyHeight=4;" vertex="1" parent="udEfrbj_mN1C28on9xcS-19">
          <mxGeometry x="1" width="20" height="20" relative="1" as="geometry">
            <mxPoint x="-27" y="7" as="offset" />
          </mxGeometry>
        </mxCell>
        <mxCell id="udEfrbj_mN1C28on9xcS-21" value="Web store&lt;div&gt;&lt;br&gt;&lt;/div&gt;" style="html=1;dropTarget=0;whiteSpace=wrap;" vertex="1" parent="1">
          <mxGeometry x="80" y="490" width="180" height="90" as="geometry" />
        </mxCell>
        <mxCell id="udEfrbj_mN1C28on9xcS-22" value="" style="shape=module;jettyWidth=8;jettyHeight=4;" vertex="1" parent="udEfrbj_mN1C28on9xcS-21">
          <mxGeometry x="1" width="20" height="20" relative="1" as="geometry">
            <mxPoint x="-27" y="7" as="offset" />
          </mxGeometry>
        </mxCell>
        <mxCell id="udEfrbj_mN1C28on9xcS-23" style="edgeStyle=orthogonalEdgeStyle;rounded=0;orthogonalLoop=1;jettySize=auto;html=1;exitX=0.5;exitY=1;exitDx=0;exitDy=0;" edge="1" parent="1" source="udEfrbj_mN1C28on9xcS-21" target="udEfrbj_mN1C28on9xcS-21">
          <mxGeometry relative="1" as="geometry" />
        </mxCell>
        <mxCell id="udEfrbj_mN1C28on9xcS-27" value="" style="rounded=0;orthogonalLoop=1;jettySize=auto;html=1;endArrow=halfCircle;endFill=0;endSize=6;strokeWidth=1;sketch=0;exitX=0.5;exitY=1;exitDx=0;exitDy=0;" edge="1" parent="1">
          <mxGeometry relative="1" as="geometry">
            <mxPoint x="169.62" y="330" as="sourcePoint" />
            <mxPoint x="169.62" y="410" as="targetPoint" />
          </mxGeometry>
        </mxCell>
        <mxCell id="udEfrbj_mN1C28on9xcS-28" value="" style="rounded=0;orthogonalLoop=1;jettySize=auto;html=1;endArrow=oval;endFill=0;sketch=0;sourcePerimeterSpacing=0;targetPerimeterSpacing=0;endSize=10;exitX=0.5;exitY=0;exitDx=0;exitDy=0;" edge="1" parent="1" source="udEfrbj_mN1C28on9xcS-21">
          <mxGeometry relative="1" as="geometry">
            <mxPoint x="200" y="545" as="sourcePoint" />
            <mxPoint x="170" y="410" as="targetPoint" />
          </mxGeometry>
        </mxCell>
        <mxCell id="udEfrbj_mN1C28on9xcS-29" value="" style="ellipse;whiteSpace=wrap;html=1;align=center;aspect=fixed;fillColor=none;strokeColor=none;resizable=0;perimeter=centerPerimeter;rotatable=0;allowArrows=0;points=[];outlineConnect=1;" vertex="1" parent="1">
          <mxGeometry x="190" y="410" width="10" height="10" as="geometry" />
        </mxCell>
        <mxCell id="udEfrbj_mN1C28on9xcS-30" value="" style="rounded=0;orthogonalLoop=1;jettySize=auto;html=1;endArrow=halfCircle;endFill=0;endSize=6;strokeWidth=1;sketch=0;fontSize=12;curved=1;exitX=0.815;exitY=-0.001;exitDx=0;exitDy=0;exitPerimeter=0;" edge="1" parent="1" source="udEfrbj_mN1C28on9xcS-21">
          <mxGeometry relative="1" as="geometry">
            <mxPoint x="245" y="415" as="sourcePoint" />
            <mxPoint x="227" y="450" as="targetPoint" />
          </mxGeometry>
        </mxCell>
        <mxCell id="udEfrbj_mN1C28on9xcS-31" value="" style="ellipse;whiteSpace=wrap;html=1;align=center;aspect=fixed;fillColor=none;strokeColor=none;resizable=0;perimeter=centerPerimeter;rotatable=0;allowArrows=0;points=[];outlineConnect=1;" vertex="1" parent="1">
          <mxGeometry x="220" y="410" width="10" height="10" as="geometry" />
        </mxCell>
        <mxCell id="udEfrbj_mN1C28on9xcS-34" value="" style="rounded=0;orthogonalLoop=1;jettySize=auto;html=1;endArrow=halfCircle;endFill=0;endSize=6;strokeWidth=1;sketch=0;exitX=0;exitY=0.5;exitDx=0;exitDy=0;" edge="1" parent="1" source="udEfrbj_mN1C28on9xcS-15">
          <mxGeometry relative="1" as="geometry">
            <mxPoint x="460" y="715" as="sourcePoint" />
            <mxPoint x="400" y="770" as="targetPoint" />
          </mxGeometry>
        </mxCell>
        <mxCell id="udEfrbj_mN1C28on9xcS-35" value="" style="rounded=0;orthogonalLoop=1;jettySize=auto;html=1;endArrow=oval;endFill=0;sketch=0;sourcePerimeterSpacing=0;targetPerimeterSpacing=0;endSize=10;exitX=1;exitY=0.5;exitDx=0;exitDy=0;" edge="1" parent="1" source="udEfrbj_mN1C28on9xcS-19">
          <mxGeometry relative="1" as="geometry">
            <mxPoint x="420" y="715" as="sourcePoint" />
            <mxPoint x="400" y="770" as="targetPoint" />
          </mxGeometry>
        </mxCell>
        <mxCell id="udEfrbj_mN1C28on9xcS-36" value="" style="ellipse;whiteSpace=wrap;html=1;align=center;aspect=fixed;fillColor=none;strokeColor=none;resizable=0;perimeter=centerPerimeter;rotatable=0;allowArrows=0;points=[];outlineConnect=1;" vertex="1" parent="1">
          <mxGeometry x="435" y="710" width="10" height="10" as="geometry" />
        </mxCell>
        <mxCell id="udEfrbj_mN1C28on9xcS-37" value="" style="rounded=0;orthogonalLoop=1;jettySize=auto;html=1;endArrow=halfCircle;endFill=0;endSize=6;strokeWidth=1;sketch=0;exitX=0;exitY=0.5;exitDx=0;exitDy=0;" edge="1" parent="1" source="udEfrbj_mN1C28on9xcS-17">
          <mxGeometry relative="1" as="geometry">
            <mxPoint x="510" y="725" as="sourcePoint" />
            <mxPoint x="220" y="890" as="targetPoint" />
          </mxGeometry>
        </mxCell>
        <mxCell id="udEfrbj_mN1C28on9xcS-38" value="" style="rounded=0;orthogonalLoop=1;jettySize=auto;html=1;endArrow=oval;endFill=0;sketch=0;sourcePerimeterSpacing=0;targetPerimeterSpacing=0;endSize=10;exitX=0.5;exitY=1;exitDx=0;exitDy=0;" edge="1" parent="1" source="udEfrbj_mN1C28on9xcS-19">
          <mxGeometry relative="1" as="geometry">
            <mxPoint x="470" y="725" as="sourcePoint" />
            <mxPoint x="220" y="890" as="targetPoint" />
          </mxGeometry>
        </mxCell>
        <mxCell id="udEfrbj_mN1C28on9xcS-39" value="" style="ellipse;whiteSpace=wrap;html=1;align=center;aspect=fixed;fillColor=none;strokeColor=none;resizable=0;perimeter=centerPerimeter;rotatable=0;allowArrows=0;points=[];outlineConnect=1;" vertex="1" parent="1">
          <mxGeometry x="485" y="720" width="10" height="10" as="geometry" />
        </mxCell>
        <mxCell id="udEfrbj_mN1C28on9xcS-40" value="" style="rounded=0;orthogonalLoop=1;jettySize=auto;html=1;endArrow=halfCircle;endFill=0;endSize=6;strokeWidth=1;sketch=0;fontSize=12;curved=1;exitX=0.75;exitY=1;exitDx=0;exitDy=0;" edge="1" parent="1" source="udEfrbj_mN1C28on9xcS-21">
          <mxGeometry relative="1" as="geometry">
            <mxPoint x="325" y="635" as="sourcePoint" />
            <mxPoint x="215" y="630" as="targetPoint" />
          </mxGeometry>
        </mxCell>
        <mxCell id="udEfrbj_mN1C28on9xcS-41" value="" style="ellipse;whiteSpace=wrap;html=1;align=center;aspect=fixed;fillColor=none;strokeColor=none;resizable=0;perimeter=centerPerimeter;rotatable=0;allowArrows=0;points=[];outlineConnect=1;" vertex="1" parent="1">
          <mxGeometry x="300" y="630" width="10" height="10" as="geometry" />
        </mxCell>
        <mxCell id="udEfrbj_mN1C28on9xcS-42" value="" style="rounded=0;orthogonalLoop=1;jettySize=auto;html=1;endArrow=halfCircle;endFill=0;endSize=6;strokeWidth=1;sketch=0;fontSize=12;curved=1;exitX=0.25;exitY=1;exitDx=0;exitDy=0;" edge="1" parent="1" source="udEfrbj_mN1C28on9xcS-13">
          <mxGeometry relative="1" as="geometry">
            <mxPoint x="325" y="675" as="sourcePoint" />
            <mxPoint x="545" y="650" as="targetPoint" />
          </mxGeometry>
        </mxCell>
        <mxCell id="udEfrbj_mN1C28on9xcS-43" value="" style="ellipse;whiteSpace=wrap;html=1;align=center;aspect=fixed;fillColor=none;strokeColor=none;resizable=0;perimeter=centerPerimeter;rotatable=0;allowArrows=0;points=[];outlineConnect=1;" vertex="1" parent="1">
          <mxGeometry x="300" y="670" width="10" height="10" as="geometry" />
        </mxCell>
        <mxCell id="udEfrbj_mN1C28on9xcS-44" value="" style="rounded=0;orthogonalLoop=1;jettySize=auto;html=1;endArrow=halfCircle;endFill=0;endSize=6;strokeWidth=1;sketch=0;fontSize=12;curved=1;exitX=0;exitY=0.5;exitDx=0;exitDy=0;" edge="1" parent="1" source="udEfrbj_mN1C28on9xcS-9">
          <mxGeometry relative="1" as="geometry">
            <mxPoint x="325" y="345" as="sourcePoint" />
            <mxPoint x="440" y="265" as="targetPoint" />
          </mxGeometry>
        </mxCell>
        <mxCell id="udEfrbj_mN1C28on9xcS-45" value="" style="ellipse;whiteSpace=wrap;html=1;align=center;aspect=fixed;fillColor=none;strokeColor=none;resizable=0;perimeter=centerPerimeter;rotatable=0;allowArrows=0;points=[];outlineConnect=1;" vertex="1" parent="1">
          <mxGeometry x="300" y="340" width="10" height="10" as="geometry" />
        </mxCell>
        <mxCell id="udEfrbj_mN1C28on9xcS-46" value="" style="rounded=0;orthogonalLoop=1;jettySize=auto;html=1;endArrow=halfCircle;endFill=0;endSize=6;strokeWidth=1;sketch=0;fontSize=12;curved=1;exitX=0;exitY=0.5;exitDx=0;exitDy=0;" edge="1" parent="1" source="udEfrbj_mN1C28on9xcS-13">
          <mxGeometry relative="1" as="geometry">
            <mxPoint x="295" y="495" as="sourcePoint" />
            <mxPoint x="430" y="585" as="targetPoint" />
          </mxGeometry>
        </mxCell>
        <mxCell id="udEfrbj_mN1C28on9xcS-47" value="" style="ellipse;whiteSpace=wrap;html=1;align=center;aspect=fixed;fillColor=none;strokeColor=none;resizable=0;perimeter=centerPerimeter;rotatable=0;allowArrows=0;points=[];outlineConnect=1;" vertex="1" parent="1">
          <mxGeometry x="270" y="490" width="10" height="10" as="geometry" />
        </mxCell>
        <mxCell id="udEfrbj_mN1C28on9xcS-51" value="" style="ellipse;whiteSpace=wrap;html=1;" vertex="1" parent="1">
          <mxGeometry x="395" y="415" width="25" height="25" as="geometry" />
        </mxCell>
        <mxCell id="udEfrbj_mN1C28on9xcS-52" value="" style="endArrow=none;html=1;edgeStyle=orthogonalEdgeStyle;rounded=0;entryX=0.007;entryY=0.435;entryDx=0;entryDy=0;entryPerimeter=0;" edge="1" parent="1" target="udEfrbj_mN1C28on9xcS-11">
          <mxGeometry relative="1" as="geometry">
            <mxPoint x="420" y="427.07" as="sourcePoint" />
            <mxPoint x="580" y="427.07" as="targetPoint" />
          </mxGeometry>
        </mxCell>
        <mxCell id="udEfrbj_mN1C28on9xcS-55" value="" style="endArrow=open;endFill=1;endSize=12;html=1;rounded=0;entryX=0.5;entryY=1;entryDx=0;entryDy=0;" edge="1" parent="1" target="udEfrbj_mN1C28on9xcS-51">
          <mxGeometry width="160" relative="1" as="geometry">
            <mxPoint x="430" y="580" as="sourcePoint" />
            <mxPoint x="440" y="510" as="targetPoint" />
            <Array as="points">
              <mxPoint x="408" y="580" />
            </Array>
          </mxGeometry>
        </mxCell>
        <mxCell id="udEfrbj_mN1C28on9xcS-56" value="" style="endArrow=open;endFill=1;endSize=12;html=1;rounded=0;entryX=0;entryY=0.5;entryDx=0;entryDy=0;" edge="1" parent="1" target="udEfrbj_mN1C28on9xcS-51">
          <mxGeometry width="160" relative="1" as="geometry">
            <mxPoint x="230" y="450" as="sourcePoint" />
            <mxPoint x="440" y="510" as="targetPoint" />
            <Array as="points">
              <mxPoint x="230" y="430" />
            </Array>
          </mxGeometry>
        </mxCell>
        <mxCell id="udEfrbj_mN1C28on9xcS-57" value="" style="endArrow=open;endFill=1;endSize=12;html=1;rounded=0;entryX=0.5;entryY=0;entryDx=0;entryDy=0;" edge="1" parent="1" target="udEfrbj_mN1C28on9xcS-51">
          <mxGeometry width="160" relative="1" as="geometry">
            <mxPoint x="440" y="270" as="sourcePoint" />
            <mxPoint x="430" y="400" as="targetPoint" />
            <Array as="points">
              <mxPoint x="408" y="270" />
            </Array>
          </mxGeometry>
        </mxCell>
        <mxCell id="udEfrbj_mN1C28on9xcS-58" value="" style="ellipse;whiteSpace=wrap;html=1;" vertex="1" parent="1">
          <mxGeometry x="540" y="670" width="10" height="10" as="geometry" />
        </mxCell>
        <mxCell id="udEfrbj_mN1C28on9xcS-59" value="" style="endArrow=open;endFill=1;endSize=12;html=1;rounded=0;entryX=0.5;entryY=0;entryDx=0;entryDy=0;" edge="1" parent="1" target="udEfrbj_mN1C28on9xcS-58">
          <mxGeometry width="160" relative="1" as="geometry">
            <mxPoint x="545" y="650" as="sourcePoint" />
            <mxPoint x="430" y="610" as="targetPoint" />
          </mxGeometry>
        </mxCell>
        <mxCell id="udEfrbj_mN1C28on9xcS-61" value="" style="endArrow=none;html=1;edgeStyle=orthogonalEdgeStyle;rounded=0;entryX=0.25;entryY=0;entryDx=0;entryDy=0;" edge="1" parent="1" target="udEfrbj_mN1C28on9xcS-15">
          <mxGeometry relative="1" as="geometry">
            <mxPoint x="545" y="680" as="sourcePoint" />
            <mxPoint x="560" y="600" as="targetPoint" />
          </mxGeometry>
        </mxCell>
        <mxCell id="udEfrbj_mN1C28on9xcS-64" value="" style="endArrow=none;html=1;edgeStyle=orthogonalEdgeStyle;rounded=0;" edge="1" parent="1">
          <mxGeometry relative="1" as="geometry">
            <mxPoint x="210" y="630" as="sourcePoint" />
            <mxPoint x="540" y="660" as="targetPoint" />
            <Array as="points">
              <mxPoint x="210" y="660" />
            </Array>
          </mxGeometry>
        </mxCell>
        <mxCell id="udEfrbj_mN1C28on9xcS-67" value="recieve" style="text;html=1;whiteSpace=wrap;strokeColor=none;fillColor=none;align=center;verticalAlign=middle;rounded=0;" vertex="1" parent="1">
          <mxGeometry x="80" y="450" width="60" height="30" as="geometry" />
        </mxCell>
        <mxCell id="udEfrbj_mN1C28on9xcS-68" value="order" style="text;html=1;whiteSpace=wrap;strokeColor=none;fillColor=none;align=center;verticalAlign=middle;rounded=0;" vertex="1" parent="1">
          <mxGeometry x="120" y="590" width="60" height="30" as="geometry" />
        </mxCell>
        <mxCell id="udEfrbj_mN1C28on9xcS-69" value="issue" style="text;html=1;whiteSpace=wrap;strokeColor=none;fillColor=none;align=center;verticalAlign=middle;rounded=0;" vertex="1" parent="1">
          <mxGeometry x="365" y="780" width="60" height="30" as="geometry" />
        </mxCell>
        <mxCell id="udEfrbj_mN1C28on9xcS-71" value="ship" style="text;html=1;whiteSpace=wrap;strokeColor=none;fillColor=none;align=center;verticalAlign=middle;rounded=0;" vertex="1" parent="1">
          <mxGeometry x="150" y="880" width="60" height="30" as="geometry" />
        </mxCell>
        <mxCell id="udEfrbj_mN1C28on9xcS-72" value="proc" style="text;html=1;whiteSpace=wrap;strokeColor=none;fillColor=none;align=center;verticalAlign=middle;rounded=0;" vertex="1" parent="1">
          <mxGeometry x="550" y="670" width="60" height="30" as="geometry" />
        </mxCell>
        <mxCell id="udEfrbj_mN1C28on9xcS-74" value="order" style="text;html=1;whiteSpace=wrap;strokeColor=none;fillColor=none;align=center;verticalAlign=middle;rounded=0;" vertex="1" parent="1">
          <mxGeometry x="580" y="620" width="60" height="30" as="geometry" />
        </mxCell>
        <mxCell id="udEfrbj_mN1C28on9xcS-75" value="access" style="text;html=1;whiteSpace=wrap;strokeColor=none;fillColor=none;align=center;verticalAlign=middle;rounded=0;" vertex="1" parent="1">
          <mxGeometry x="440" y="450" width="60" height="30" as="geometry" />
        </mxCell>
      </root>
    </mxGraphModel>
  </diagram>
</mxfile>
